<?xml version="1.0" encoding="utf-8"?>
<!-- Generator: Adobe Illustrator 23.1.0, SVG Export Plug-In . SVG Version: 6.00 Build 0)  -->
<svg version="1.1" id="Warstwa_1" xmlns="http://www.w3.org/2000/svg" xmlns:xlink="http://www.w3.org/1999/xlink" x="0px" y="0px"
	 viewBox="0 0 18 18" enable-background="new 0 0 18 18" xml:space="preserve">
<path id="icon-bell" fill-rule="evenodd" clip-rule="evenodd" d="M10.5,15h-3C7.2,15,7,15.2,7,15.5V16c0,1.1,0.9,2,2,2s2-0.9,2-2
	v-0.5C11,15.2,10.8,15,10.5,15z M16.8,12.7L15,10.8V6c0-3.3-2.7-6-6-6S3,2.7,3,6v4.8l-1.8,1.9C1.1,12.7,1,12.9,1,13v0.5
	C1,13.8,1.2,14,1.5,14h15c0.3,0,0.5-0.2,0.5-0.5V13C17,12.9,16.9,12.7,16.8,12.7z"/>
</svg>
